<svg xmlns="http://www.w3.org/2000/svg" viewBox="0 0 200 80" width="200" height="80">
  <!-- House Icon -->
  <g transform="translate(10, 10)">
    <!-- Roof - Light Blue -->
    <path d="M0 30 L20 10 L40 30" fill="none" stroke="#87CEEB" stroke-width="3" stroke-linecap="round"/>
    
    <!-- Left Wall Section - Muted Green/Teal -->
    <rect x="5" y="30" width="15" height="25" fill="#98D8C8" stroke="#2F4F4F" stroke-width="1"/>
    
    <!-- Right Wall Section - Muted Orange/Peach -->
    <rect x="20" y="30" width="15" height="25" fill="#F4A460" stroke="#2F4F4F" stroke-width="1"/>
    
    <!-- Left Wall Details - Three horizontal lines -->
    <line x1="8" y1="35" x2="17" y2="35" stroke="#2F4F4F" stroke-width="1.5"/>
    <line x1="8" y1="40" x2="15" y2="40" stroke="#2F4F4F" stroke-width="1.5"/>
    <line x1="8" y1="45" x2="17" y2="45" stroke="#2F4F4F" stroke-width="1.5"/>
    
    <!-- Right Wall Details - Bar chart and grid -->
    <!-- Bar chart -->
    <rect x="22" y="35" width="2" height="8" fill="#2F4F4F"/>
    <rect x="25" y="37" width="2" height="6" fill="#2F4F4F"/>
    
    <!-- Grid (2x2) -->
    <rect x="22" y="47" width="3" height="3" fill="#2F4F4F"/>
    <rect x="26" y="47" width="3" height="3" fill="#2F4F4F"/>
    <rect x="22" y="51" width="3" height="3" fill="#2F4F4F"/>
    <rect x="26" y="51" width="3" height="3" fill="#2F4F4F"/>
  </g>
  
  <!-- Vertical Separator Line -->
  <line x1="60" y1="15" x2="60" y2="65" stroke="#2F4F4F" stroke-width="2"/>
  
  <!-- Text "KOMPLEK KITA" -->
  <text x="80" y="35" font-family="Arial, sans-serif" font-size="16" font-weight="bold" fill="#2F4F4F">KOMPLEK</text>
  <text x="80" y="55" font-family="Arial, sans-serif" font-size="16" font-weight="bold" fill="#2F4F4F">KITA</text>
</svg> 