<svg width="800" height="600" xmlns="http://www.w3.org/2000/svg">
  <!-- Background -->
  <rect width="800" height="600" fill="#f0f9ff" rx="20" ry="20"/>
  
  <!-- Dashboard Header -->
  <rect x="50" y="50" width="700" height="80" fill="#3b82f6" rx="10" ry="10"/>
  <circle cx="100" cy="90" r="20" fill="#ffffff"/>
  <text x="130" y="95" font-family="Arial" font-size="20" fill="#ffffff">KomplekKita Dashboard</text>
  
  <!-- Sidebar -->
  <rect x="50" y="150" width="200" height="400" fill="#ffffff" rx="10" ry="10" stroke="#e5e7eb" stroke-width="2"/>
  
  <!-- Sidebar Menu Items -->
  <rect x="70" y="180" width="160" height="40" fill="#eff6ff" rx="5" ry="5"/>
  <text x="100" y="205" font-family="Arial" font-size="14" fill="#1e40af">Dashboard</text>
  
  <rect x="70" y="230" width="160" height="40" fill="#ffffff" rx="5" ry="5"/>
  <text x="100" y="255" font-family="Arial" font-size="14" fill="#6b7280">Pengumuman</text>
  
  <rect x="70" y="280" width="160" height="40" fill="#ffffff" rx="5" ry="5"/>
  <text x="100" y="305" font-family="Arial" font-size="14" fill="#6b7280">Pembayaran</text>
  
  <rect x="70" y="330" width="160" height="40" fill="#ffffff" rx="5" ry="5"/>
  <text x="100" y="355" font-family="Arial" font-size="14" fill="#6b7280">Fasilitas</text>
  
  <rect x="70" y="380" width="160" height="40" fill="#ffffff" rx="5" ry="5"/>
  <text x="100" y="405" font-family="Arial" font-size="14" fill="#6b7280">Keamanan</text>
  
  <rect x="70" y="430" width="160" height="40" fill="#ffffff" rx="5" ry="5"/>
  <text x="100" y="455" font-family="Arial" font-size="14" fill="#6b7280">Pengaturan</text>
  
  <!-- Main Content -->
  <rect x="270" y="150" width="480" height="190" fill="#ffffff" rx="10" ry="10" stroke="#e5e7eb" stroke-width="2"/>
  <text x="290" y="180" font-family="Arial" font-size="18" font-weight="bold" fill="#1f2937">Ringkasan Kompleks</text>
  
  <!-- Stats Cards -->
  <rect x="290" y="200" width="130" height="120" fill="#f0f9ff" rx="8" ry="8"/>
  <text x="310" y="230" font-family="Arial" font-size="12" fill="#6b7280">Total Rumah</text>
  <text x="310" y="260" font-family="Arial" font-size="24" font-weight="bold" fill="#1e40af">156</text>
  
  <rect x="440" y="200" width="130" height="120" fill="#ecfdf5" rx="8" ry="8"/>
  <text x="460" y="230" font-family="Arial" font-size="12" fill="#6b7280">Pembayaran</text>
  <text x="460" y="260" font-family="Arial" font-size="24" font-weight="bold" fill="#10b981">92%</text>
  
  <rect x="590" y="200" width="130" height="120" fill="#fef2f2" rx="8" ry="8"/>
  <text x="610" y="230" font-family="Arial" font-size="12" fill="#6b7280">Pengumuman</text>
  <text x="610" y="260" font-family="Arial" font-size="24" font-weight="bold" fill="#ef4444">8</text>
  
  <!-- Recent Activities -->
  <rect x="270" y="360" width="480" height="190" fill="#ffffff" rx="10" ry="10" stroke="#e5e7eb" stroke-width="2"/>
  <text x="290" y="390" font-family="Arial" font-size="18" font-weight="bold" fill="#1f2937">Aktivitas Terbaru</text>
  
  <!-- Activity Items -->
  <rect x="290" y="410" width="440" height="1" fill="#e5e7eb"/>
  <circle cx="310" cy="430" r="6" fill="#3b82f6"/>
  <text x="330" y="435" font-family="Arial" font-size="14" fill="#1f2937">Pembayaran iuran bulanan diterima</text>
  <text x="670" y="435" font-family="Arial" font-size="12" fill="#6b7280">Hari ini</text>
  
  <rect x="290" y="450" width="440" height="1" fill="#e5e7eb"/>
  <circle cx="310" cy="470" r="6" fill="#10b981"/>
  <text x="330" y="475" font-family="Arial" font-size="14" fill="#1f2937">Jadwal pemeliharaan taman diperbarui</text>
  <text x="670" y="475" font-family="Arial" font-size="12" fill="#6b7280">Kemarin</text>
  
  <rect x="290" y="490" width="440" height="1" fill="#e5e7eb"/>
  <circle cx="310" cy="510" r="6" fill="#f59e0b"/>
  <text x="330" y="515" font-family="Arial" font-size="14" fill="#1f2937">Rapat warga dijadwalkan</text>
  <text x="670" y="515" font-family="Arial" font-size="12" fill="#6b7280">2 hari lalu</text>
</svg>